<?xml version="1.0" standalone="no"?>
<!DOCTYPE svg PUBLIC "-//W3C//DTD SVG 1.1//EN" "http://www.w3.org/Graphics/SVG/1.1/DTD/svg11.dtd" >
<svg xmlns="http://www.w3.org/2000/svg">
<metadata>Generated by IcoMoon</metadata>
<defs>
<font id="icomoon" horiz-adv-x="1024">
<font-face units-per-em="1024" ascent="960" descent="-64" />
<missing-glyph horiz-adv-x="1024" />
<glyph unicode="&#x20;" horiz-adv-x="512" d="" />
<glyph unicode="&#xe900;" glyph-name="mail-envelope-closed" d="M226.462 610.462l25.846 25.846 275.692-236.308 275.692 236.308 25.846-25.846-301.538-258.462-301.538 258.462zM192.115 704c-35.41 0-64.115-28.624-64.115-63.81v-384.38c0-35.241 28.472-63.81 64.115-63.81h671.77c35.41 0 64.115 28.624 64.115 63.81v384.38c0 35.241-28.472 63.81-64.115 63.81h-671.77z" />
<glyph unicode="&#xe901;" glyph-name="keyboard_arrow_up" d="M305.333 268.667l-60 60 256 256 256-256-60-60-196 196z" />
<glyph unicode="&#xe902;" glyph-name="knife" d="M886 957.2c-20.2-5.6-23.6-8.4-128-112.2l-103-102.2-326.6-246.8c-243.4-183.8-326.8-247.8-327.8-251.6-0.6-2.8-0.4-7.2 0.6-9.8 1-2.8 76-65.4 181.4-151.6 141.6-115.8 181-147 185.2-147 3.6 0 13 5.2 27.4 15.2 164.4 114.8 307.8 268.2 421.2 449.8 30.2 48.4 55.6 96 55.6 103.8 0 3.2-15.8 24.6-50.2 68-27.6 34.8-49.8 64-49.4 65s23.4 28 51.2 59.6l50.4 57.8 59 32.8c65 36 73.6 42.6 83.4 63.4 19.6 41.2-2.2 91.2-45.6 104.6-11 3.4-18.4 4-44.6 3.8-18.2 0-35-1.2-40.2-2.6zM961 925.8c16.8-4.6 31-24.8 31-43.8 0-10-8.4-26.6-16.2-32.4-3.8-2.8-31.6-18.8-61.8-35.6-30.2-16.6-58-33.2-61.8-36.6-3.6-3.6-27.8-30.4-53.6-59.8-25.8-29.6-47.4-53.6-48.2-53.6-0.8 0.2-13.8 16-29.2 35.4l-27.6 35.2 94.6 94.4c72 71.8 96.4 94.8 101.8 96.4 9.4 3 61 3.2 71 0.4zM718.2 652c25.8-32.4 49.8-62.8 53.6-67.6 8.2-10.4 9.4-6.8-18.8-52.6-11.6-18.6-21-36.2-21-38.6 0-14.2 19.2-20.8 28-9.6 2.4 3 12.4 18.8 22.4 35s18.4 29.4 18.6 29c5.2-5.2 35-44.8 35-46.6 0-3.6-31.8-59.6-52.8-93-101.8-161.4-237.4-308.4-380.2-411.8-13.2-9.6-26.2-19-29-20.8-5-3.2-5.2-3.2-32 18.8-14.8 12-27.2 22.6-27.6 23.4-0.2 1 7 5.8 16.2 10.8 87.6 49 187.6 137.8 281 250.2 12.4 15 16.4 21 16.4 25.6 0 10.8-12.2 18.6-22.8 14.6-1.6-0.6-8.2-7.6-14.6-15.4-35.8-44.4-96.6-108.8-136.4-144.2-49.6-44.2-100-81-147-107l-22-12-10 8.4c-5.6 4.8-59.6 49-120.2 98.4-60.4 49.2-110.8 90.2-111.6 91-1.6 1.4 6.8 7.8 119.6 93 32 24.2 87.8 66.4 124 93.8 36.4 27.4 96.6 73 134 101.2 37.4 28.4 108.6 82.2 158 119.6 49.6 37.4 90.6 67.4 91.2 66.8 0.8-0.8 22.4-28 48-60.4zM921 895c-3.2-3-5-7.2-5-11s1.8-8 5-11c3-3.2 7.2-5 11-5s8 1.8 11 5c3.2 3 5 7.2 5 11s-1.8 8-5 11c-3 3.2-7.2 5-11 5s-8-1.8-11-5zM687.6 430.6c-12.2-13.4-31.6-43.4-31.6-49 0-10.8 12.2-18.4 22.8-14.4 3.8 1.4 34 43.8 36 50.2 1.6 5.2-3.2 15.6-7.8 17.4-7.2 2.6-14.4 1.2-19.4-4.2zM144 285.4c-9.8-3.2-26.6-20.4-29.6-30.6-5.6-18.8-1.6-33.8 12.6-47.8 20.2-20.4 45.8-20.4 66 0 10.4 10.2 15 20.4 15 32.8 0 8.4-7.6 16.2-16 16.2-3.8 0-8-1.8-11-5-3.2-3-5-7.2-5-11 0-8.2-7.8-16-16-16s-16 7.8-16 16c0 8.2 7.8 16 16 16 14 0 21 17.2 11 27-5.4 5.6-14.6 6.4-27 2.4z" />
<glyph unicode="&#xe903;" glyph-name="checked" d="M466 958c-96.4-8.6-190-46-270-107.6-39-30-89.6-86.4-118.8-132.4-12.6-19.8-37.2-70.2-46-94.2-9.8-26.8-20.4-68-25.6-99.8-6.2-39-6.2-113 0-152 9-55.2 23.2-99.6 47.4-149 26.4-53.8 53.8-92 97.8-136.2 44.2-44 82.4-71.4 136.2-97.8 49.4-24.2 93.8-38.4 149-47.4 39-6.2 113-6.2 152 0 31.8 5.2 73 15.8 99.8 25.6 24 8.8 74.4 33.4 94.2 46 64.2 40.8 124 100.6 164.8 164.8 12.6 19.8 37.2 70.2 46 94.2 16.6 45.6 28 101.6 30.4 151.8 1.6 30.8 0 38.2-9.8 49.4-20.4 23.2-58.2 13-65.2-17.4-1.2-5-2.2-15.8-2.2-24.4 0-22.8-5.6-61.2-13-90.8-38.2-152.6-161.2-275.6-313.8-313.8-69.8-17.6-145.8-17.4-215.2 0.2-171.2 43.8-300.2 189.4-322.8 364.4-4 31.6-4 81.2 0 112.8 22.4 174.8 151.8 320.6 322.8 364.4 30 7.6 68.4 13.2 91.6 13.2 28.6 0.2 43.2 6.8 50.6 22.8 9.4 20.6 1.4 41.8-19.2 51.4-8.8 4-28.8 4.6-61 1.8zM959 830.2c-3.2-0.8-8.2-2.6-11-4.2-2.8-1.4-109.8-107.2-238-235.2l-233-232.4-58 63c-107.4 117-113 122.8-122.6 127-18.2 8.2-39.8 0.6-48.2-16.8-5.4-11.2-5.4-25.4-0.4-35.2 3.4-6.6 61-70 169.8-187.2 36.4-39.2 44-45.2 58.4-45.2 16.8 0 13.6-3 274.4 257.4 269.6 269.2 257.4 256 255.2 275.6-2.6 22-25.8 38.4-46.6 33.2z" />
<glyph unicode="&#xe904;" glyph-name="viber" d="M486.315 959.916c-82.133-1.109-258.86-14.592-357.718-105.173-73.387-72.96-99.029-180.523-102.016-313.729-2.56-132.693-5.547-381.868 234.668-449.75v-103.253c0 0-1.621-41.387 25.685-49.92 33.707-10.667 52.907 21.291 84.907 55.424l59.733 67.413c164.267-13.653 290.134 17.877 304.641 22.571 33.28 10.667 221.056 34.603 251.777 283.82 31.573 257.324-15.36 419.457-99.84 492.844l-0.427 0.085c-25.6 23.467-128 98.133-357.121 98.987 0 0-16.896 1.067-44.288 0.683zM489.173 887.51c23.253 0.128 37.547-0.853 37.547-0.853 193.707-0.427 286.337-58.88 308.097-78.507 71.253-60.971 107.861-207.189 81.067-422.060-25.6-208.213-177.92-221.44-206.080-230.4-11.947-3.84-122.88-31.147-262.486-22.187 0 0-104.064-125.483-136.491-157.909-5.12-5.547-11.093-7.253-14.933-6.4-5.547 1.28-7.253 8.107-6.827 17.493l0.853 171.477c-203.563 56.32-191.616 268.886-189.483 379.82 2.56 110.933 23.467 201.899 85.333 263.34 83.499 75.52 233.601 85.76 303.404 86.187zM504.533 776.577c-0.013 0-0.028 0-0.043 0-7.046 0-12.757-5.712-12.757-12.757 0 0 0 0 0 0v0c0-7.069 5.731-12.8 12.8-12.8v0c1.364 0.028 2.971 0.044 4.583 0.044 65.1 0 124.152-25.892 167.421-67.939l-0.057 0.055c46.507-45.227 69.163-105.813 70.016-185.173 0-7.069 5.731-12.8 12.8-12.8v0 0.384c7.069 0 12.8 5.731 12.8 12.8v0c0.157 3.48 0.247 7.56 0.247 11.662 0 74.43-29.543 141.961-77.544 191.504l0.070-0.072c-50.773 49.493-114.859 75.093-190.336 75.093zM335.829 747.137c-1.727 0.259-3.721 0.408-5.748 0.408-7.549 0-14.619-2.053-20.681-5.631l0.19 0.104h-0.512c-17.493-10.24-33.621-23.040-48.981-40.107-11.52-13.653-17.963-27.264-19.669-40.491-0.279-2.039-0.438-4.396-0.438-6.791 0-5.823 0.941-11.426 2.678-16.666l-0.107 0.374 0.853-0.427c14.645-42.578 31.945-79.22 52.671-113.56l-1.471 2.627c28.652-51.472 61.491-95.882 99.246-135.571l-0.26 0.275 1.28-1.707 1.707-1.28 2.56-2.56c39.559-37.583 84.086-70.554 132.337-97.686l3.343-1.728c56.32-30.72 90.539-45.227 111.019-51.2v-0.427c5.973-1.707 11.435-2.56 16.981-2.56 18.235 1.369 34.519 8.773 47.083 20.196l-0.064-0.057c16.64 14.933 29.867 31.488 39.68 48.981v0.427c9.813 18.347 6.4 35.883-7.68 47.829-27.026 23.744-57.036 45.466-88.997 64.222l-2.736 1.484c-21.76 11.947-43.947 4.693-52.907-7.253l-19.2-24.277c-9.813-11.947-27.733-10.24-27.733-10.24l-0.512-0.427c-133.12 34.133-168.533 168.917-168.533 168.917s-1.707 18.347 10.667 27.733l23.893 19.2c11.52 9.387 19.627 31.573 7.253 53.333-20.207 34.7-41.93 64.712-66.261 92.376l0.555-0.643c-5.305 6.541-12.762 11.155-21.28 12.765l-0.224 0.035zM526.677 709.164c-7.051-0.024-12.757-5.746-12.757-12.8 0-7.069 5.731-12.8 12.8-12.8 0.015 0 0.030 0 0.045 0h-0.002c44.424-0.795 84.345-19.431 113.026-49.025l0.041-0.042c23.999-26.399 38.693-61.631 38.693-100.296 0-3.292-0.107-6.56-0.316-9.799l0.023 0.441c0.024-7.051 5.746-12.757 12.8-12.757 0 0 0 0 0 0v0l0.427-0.512c0 0 0 0 0 0 7.069 0 12.8 5.731 12.8 12.8 0 0.015 0 0.030 0 0.045v-0.002c1.28 50.773-14.507 93.44-45.653 127.573s-74.667 53.333-130.133 57.173c-0.268 0.020-0.581 0.031-0.896 0.031s-0.628-0.011-0.937-0.034l0.041 0.002zM547.584 640.085c-0.114 0.004-0.249 0.006-0.384 0.006-7.202 0-13.040-5.838-13.040-13.040 0-7.067 5.621-12.821 12.637-13.034h0.020c42.24-2.133 62.72-23.467 65.28-67.413 0.237-6.883 5.874-12.373 12.793-12.373 0.002 0 0.005 0 0.007 0h0.426c6.896 0.221 12.402 5.864 12.402 12.794 0 0.302-0.010 0.602-0.031 0.9l0.002-0.040c-2.987 57.173-34.133 89.216-89.6 92.203-0.076 0.002-0.166 0.003-0.256 0.003s-0.18-0.001-0.269-0.003h0.013z" />
<glyph unicode="&#xe905;" glyph-name="people" d="M485 809.8c-59.6-8.8-107.2-49.6-125.4-107.8-6.6-21.6-6.6-62.2 0-84 20.4-65.4 78.2-108 146.8-108.2 26.4 0 42.6 3.6 66.6 15.2 32 15.4 53.6 37 70 69.4 12.2 24.2 15.6 41.8 14.6 72.2-0.8 19.6-2 27.6-6.4 40.4-7.8 22.8-19.6 41.8-37 59.2-24.6 24.6-53.6 38.8-88.8 43.6-17.6 2.4-23.2 2.4-40.4 0zM544 772c36-12.2 64.6-40.8 76.2-76.4 6.2-19 6.8-50.8 1-67.6-14.6-43.2-44.2-71.2-86.8-82.2-38.6-9.8-79.4 0.8-109.6 29-15.8 14.6-24.8 28.6-32.2 49.6-6.8 19.4-7.2 49.8-0.8 69.6 12.6 39.6 50 73.8 89.2 81.8 16.2 3.2 48 1.4 63-3.8zM796 705c-40.4-9.2-75.6-41.4-88.2-81-5-15.2-6-47.6-2-62 5.4-19.6 16.2-38 30.8-53 16.4-16.4 27.4-23.4 47.6-30.2 30.2-10.2 60.6-7.8 91 7 79.6 39.4 87 150.6 13.4 201-26.4 18-62.4 25-92.6 18.2zM846.2 670.8c15.2-4.6 25.6-11.2 37.6-23.8 39.8-42 26.2-108.6-27.2-133.4-34.8-16.4-79.8-5.2-103 25.4-12.6 16.4-16.4 28.8-16.6 52 0 18.4 0.6 21 6.4 33.6 10.4 22 30.2 39.2 53.6 46.6 11.4 3.6 36.4 3.4 49.2-0.4zM178.2 696.8c-30-6.4-57.2-24.8-74-49.8-31.6-47.2-25.2-108.4 15.2-148.2 20.8-20.6 54.8-34.8 83.6-34.8 49.8 0 97.8 35.6 113.2 84 6.4 19.6 6 50-0.8 69.6-7.2 20.6-16.2 34.8-31.8 49.4-28.4 27-67.6 38-105.4 29.8zM238 658.6c24-11.4 38.8-28.4 46.4-53.4 12-39.2-7.6-81.8-45.8-99.8-25.8-12-60.4-9.4-83.4 6.6-12.2 8.2-25 22.8-30.2 34.6-20.8 45.6 2 98.4 50.2 115.4 9.4 3.2 15.6 4 30.8 3.4 16.4-0.4 20.8-1.4 32-6.8zM488 488.6c-61.2-6-119.8-31.4-162.6-70.6l-13.6-12.6-19.4 9.2c-23.6 11.2-39.8 16.2-63.4 19.4-93.8 13.2-187.6-44.8-218.4-135-8.2-24-10.6-44.2-10.6-87 0-39.4 0-39.6 5.6-50.2 4-7.8 8.2-12.4 15.4-16.8l9.6-6 203-1.2 1.2-8c1.8-11.6 7.6-22 17.2-30.6 17-15.4-4.4-14.2 260-14.2s243-1.2 260 14.2c11.4 10.2 16.4 21 17.6 37.2l1 13.4 100.2 0.6c71.2 0.4 101.8 1.4 105.4 3 8.8 3.8 20.2 15 24 23.6 3.2 6.8 3.8 13.6 3.8 47.2 0 42.6-2.4 62.8-10.6 86.8-20.8 61-69.2 108.2-130.4 127.6-55.4 17.4-120 9.6-167.8-20l-9.8-6.2-12.4 10.6c-56.6 48-133.6 72.8-205 65.6zM553.2 453c100-17.2 178.4-92.6 199-191.4 3.4-16.8 4.4-29.6 5-70.2 1-53.8 0-62.6-8.6-69.2-5.2-4.2-6.2-4.2-236.6-4.2-229 0-231.6 0-236.6 4-8.6 6.8-9.4 13.2-8.6 68 0.6 42.8 1.4 54.4 5 71.6 20.6 98 98.4 173.6 197.2 191.2 21.6 3.8 62.4 4 84.2 0.2zM863.8 409.8c59.6-15.2 106.8-62.6 122.2-122.6 3.4-13.4 4-22.2 4-57.2 0-29.4-0.6-41.8-2.4-43.6s-26.6-2.4-99.8-2.4h-97.2l-1.2 34.6c-1.8 50-9.4 80.6-30.6 121.6-5.2 10.2-14.2 25-20 33l-10.6 14.6 6.6 4.2c35.2 21.6 86.2 28.6 129 17.8zM244.4 397.2c17-4.2 43.6-15.6 43.6-18.4 0-0.6-3.8-6.4-8.2-13.2-11.8-17.2-28.8-53.6-34.8-74.6-7.8-26.8-11-52.4-11-87.4v-31.6h-97.8c-83.4 0-98 0.4-100.2 3-1.8 2.2-2.2 14.6-1.6 48.4 0.8 40.8 1.4 47.2 5.4 59.6 19.6 59.6 66.8 102.8 127.2 116 20.6 4.6 55.6 3.8 77.4-1.8z" />
<glyph unicode="&#xe906;" glyph-name="chicken" d="M826.6 957.2c-26.2-8.4-42.6-30.6-42.6-58.4v-14.4l-10.4-3.4c-42-13.4-82.4-46-112-90-24.2-36-46.4-87.8-58.8-136-3-12-5.6-22.2-5.8-22.4 0-0.2-14-4-31-8.4-25-6.6-31.8-9-35.4-13.2-9-10.2-4.4-26.8 8.4-31 5.6-1.8 11-1.2 35.4 5.2 15.6 4 32.4 8.2 37 9.4 17.6 4.2 64.6-13.8 85.4-32.6 13.8-12.8 20.4-26.2 23.4-47.2 3.4-23.2 0.2-43-10-63.8-22.4-45.4-74.4-67.2-145.8-61-98.6 8.6-186.8 66.8-261.6 172.8-5.4 7.8-8.4 13.4-6.8 12.8 13.6-5.2 57.4-13.4 71.6-13.6 15.6 0 24.4 20.8 14 33-4 4.4-7.6 5.6-24.6 8.2-11 1.6-28 5-37.6 7.8-34 9.6-44.8 14.6-146 66.6-32.8 17-49.6 22.6-67.8 22.6-22.6 0.2-38.6-10.4-48-31.6-9.6-21.8-6.6-42.4 11.8-78l12.4-24.4-1.2-31.6c-1-26.6-0.6-33.6 2.2-43.6 4.4-14.8 11.4-27.2 22.2-39 8.2-8.6 8.4-9.6 9.6-25 2-30.2 15.4-54.4 42.6-77.2 9.4-7.8 18.2-16 19.8-18.6 1.6-2.4 5.6-15.4 9-28.8 3.2-13.2 8.2-29.4 11-35.6 13.2-29.8 45.8-67.4 72.2-83 22.6-13.4 53.4-23.6 71.2-23.8 6.8 0 7.8-0.8 18.2-16.4 6.2-9.2 14.6-20 18.8-24.2l7.8-7.6-5.4-38c-3-21-5.8-38.4-6.2-38.8-0.2-0.4-10-3.6-21.6-7.2-23.8-7.2-28.4-9.8-31.6-17-3.6-7.8-2.8-14 2.6-20.4 7.6-9.2 13.6-9.4 35.8-2.4 10.8 3.4 19.8 6 20 5.6 0.4-0.4 3.2-9.6 6.4-20.6 3.2-10.8 7.6-22 9.8-24.6 4.6-5.2 19.6-7.8 51.2-8.8l18-0.6 6 6.6c6.4 7.2 7.2 13.8 2.8 22.4-4.2 8.2-8.4 9.8-29 11.4-10 0.6-18.6 2-19.4 3.2-0.6 1-3.6 10.2-6.6 20.2l-5.4 18.2 4.6 32c2.6 17.6 4.8 32.2 4.8 32.4s5.6-2.2 12.6-5.4c11.2-5 31.2-11.6 46-14.8 5-1.2 7.6-5.2 22.6-36.6 9.2-19.4 17.4-37.2 18-39.6 0.8-3.6-0.8-4.8-16.4-9.8-9.6-3.2-19.6-7.8-22.2-10.4-6.4-6.4-6.4-19.2 0.2-25.8 8.4-8.4 13.4-8.2 42 0.8 29.8 9.4 30 9.4 85 5.2 43-3.4 47.6-2.8 53.4 6.2 5.8 8.6 4.6 18.4-2.8 25-3.6 3.2-8.4 5.8-11 5.8-2.4 0-20.2 1.4-39.4 3s-37.4 3-40.2 3c-4.6 0-6.8 3.4-24.6 41.2-16 34-19 41.8-16.8 43.8 1.4 1.4 31.8 22.6 67.6 47.4 59.4 41 66.6 45.4 84 51.4 82.6 28.2 144.8 79.6 178 147.2 22.8 46.8 31.8 85.8 33.4 147.2 2.2 74.4-10.4 147.4-39.6 233.2-6.6 19.2-11.8 35.2-11.4 35.6 0.4 0.2 7.2 1.4 15 2.8 38.6 6 61.8 25.6 67.6 56.8l1.4 7.6 33.4-2.8 7.2 7.2c7.8 7.8 8.8 14 4 23.2-3.4 6.8-6.8 8.4-20 10-7.6 1-9.8 2-9.2 4.2 0.4 1.6 1.2 11.2 1.8 21.4 0.8 16.2 0.4 19.4-4 29-6.8 14.4-13.8 22.4-27.4 30.2-6.2 3.8-17 11-24 16-19.4 14.4-39.8 18.6-59.6 12.6zM861.2 913c5.4-3.8 15.2-10.2 21.8-14.2 15.2-9.4 19-14 19-23.4v-7.6l-7.6 6.2c-12.2 9.8-26.8 14.4-49.4 15.8l-20 1.2-0.6 6.8c-0.8 8.4 2.8 15.6 9.6 19.2 8.6 4.8 16.8 3.6 27.2-4zM865.8 844c13.8-7.8 17.2-13.8 17.2-30.2 0-13.8-0.2-14.2-8.2-21.8-10-9.2-21-12-48-12-20.8 0-31-3-34.8-10.2-3.8-7-1.4-21.4 6.8-39.6 16.2-35.6 35.2-99.4 44-148.2 7.6-41.6 9.8-70.2 8.6-110.6-1.4-54.4-9-89-28.4-128.6-30-61.8-82-104.6-158-129.6-15.8-5.4-25.4-10-37.2-18.2-8.6-6.2-15.8-10.6-15.8-10s1.6 4.4 3.8 8.6c6.6 13 16.2 42.4 16.2 49.8 0 9-9 18.6-17.8 18.6-13.4 0-17.8-4.8-25.2-28-5.6-17.4-19.6-45.4-33.2-66-14.6-22.4-55-64-62-64-8.2 0-29 6.4-44.8 13.8-29.4 14-50.2 32.8-62.4 56.8-2.6 5.4-10.2 25.2-16.8 44.2-13.2 38.2-16.6 43.2-29.6 43.2-8.8 0-17.2-6.6-19.4-14.8-0.8-3.2 1-11.8 5.2-24.2 3.6-10.6 5.8-19.8 5.2-20.6-2.6-2.6-29.4 8.2-43.6 17.4-16.8 11-32 26.4-43.4 44.2-9.4 14.6-14.4 27.2-19.8 49.6l-3.8 16.4h17.8c23.2 0 43.6 4.6 50.4 11.4 7.4 7.4 7.2 20-0.2 27.4-5 5-6.4 5.4-16.6 4.4-36.8-3.8-48.8-3.6-67 0.6-18.6 4.6-29.4 10.4-36.4 19.8-5.8 8-11.8 20.4-13.6 27.8l-1.4 6.6 27.8-1.4c19.6-0.8 30-0.4 35.2 1.2 15.6 5.2 20.4 21.4 9.6 32.4-5.6 5.6-6.6 5.8-25.2 5.8-10.6 0-27.8 1-38.6 2.2-21.8 2.4-26.2 5-36 21.8-4.6 7.6-5.4 11.8-6 28.8-0.8 18.8-0.6 19.8 2.8 18.4 15.6-6.2 35.6-11.4 47-12.4 13.2-1.4 13.8-1.2 19.6 4.8 11.2 11.2 6.4 30.4-8.2 33.2-23.4 4.6-30.2 6.4-41.4 11.4-20.4 9.2-24.6 13.6-36 36.2-12 23.8-14.2 34-9.2 43.6 3.4 6.4 3.6 6.6 14.6 5.4 14.2-1.2 24-5.6 79.6-35l44.2-23.2 6.4-12.6c20.2-38.6 58.8-89.6 96-126.6 69-68.6 143.4-105 228-112 98.2-8 171.4 33.2 192.2 108.2 10.6 38.6 5.4 83.4-12.8 110.8-18 27.2-55.2 51.4-93.6 61-7 1.8-9.6 3.4-9.6 6 0 7.8 14.2 52 23.8 75 25.8 60.8 61.4 103.6 103.4 124.2 23.4 11.2 40.2 14.8 66.8 14.2 20.2-0.4 24-1 31.8-5.4zM448.6 602c-6.8-2.8-13-13.8-11.6-21 1.4-8.6 11.4-17 20.2-17 10 0 18.8 9 18.8 19 0 9.4-2.6 14.2-10 18-6.4 3.4-10.8 3.6-17.4 1z" />
<glyph unicode="&#xe907;" glyph-name="pig" d="M236 740.6c-57-8.6-90.2-20.2-127-44.4-13.6-9-44.8-38-55.8-52.2l-5.6-7 1.2 12c0.6 6.6 1.6 16.6 2.4 22.4 1.2 9.8 1 10.8-4.8 16.4-7.8 7.8-19.4 8.6-27.4 1.8-11-9.8-14.2-59.6-6-93.2 2.8-12.2 2.8-13.2-1.2-22-7-16.2-10-32.4-11.2-64.4-1.8-47 4.8-84.4 22.8-128.6l7-17.4-11.2-13.2c-7.4-8.8-11.2-14.8-11.2-18.4 0-3-1.8-39.2-4-80.4-5-93.6-5.2-85.2 1.8-92.2l5.8-5.8h49c63.4 0 63-0.4 59.8 37.4-1.6 18.8 0.2 52.8 3.2 63.6 1.6 5.6 2.6 4 18.6-26.8 9.2-17.8 19-34.6 21.6-37.4l4.8-4.8h105.8l5.8 5.8c8.6 8.6 7.6 15.2-4.4 35.4-11.8 19.6-22.4 44.4-27.8 65.6-3.8 14.8-9 54.8-7.4 56.4 0.4 0.6 5.6-2.4 11.6-6.4 26-17.4 63.4-31.8 98.8-38 24.4-4 74-4.6 101-1 29.2 4 63.4 11.6 90.2 20 16.2 5.4 24.4 7 24.8 5.6s10.2-39.2 21.8-84.4c18.4-72 21.8-82.6 26.2-86.4 5.2-4.6 6.2-4.6 53.8-4.6 46 0 49 0.2 53.8 4 8.2 6.4 8.6 14.4 1.6 37.6-11 37-14.6 60.2-15.6 100.4-0.4 20.4-0.2 42 0.8 48l1.6 11 28 1.4c15.4 0.8 34.4 2.6 42.2 4.2 9.2 1.8 18.4 2.2 26 1.2 30.8-3.8 75.8-1.2 113.8 6.6 43 8.8 95.4 29.4 100.4 39.6 1.8 3.4 2.6 16.8 2.6 42.4 0 36.6 0 37.4-4.8 43-3 3.4-9 7-15.6 9.2-12 3.8-31.8 15-40.4 23-3.2 3-11.4 13-18.2 22.2l-12.4 16.8 7.6 15.2c16.2 31.8 20.8 71.4 9.8 83.4-10.2 11-25.6 13.4-51.4 8-14-3-46-13.6-63.2-21l-9.8-4.2-15.2 9.4c-56.4 34.2-119.2 48.6-211.8 48.6-27.2 0-34-0.6-38.6-3.4-9.6-5.6-12.4-16-7.2-26.4 4.6-8.8 10.4-10.2 45.8-10.2 74.2-0.2 119.8-8.4 167.2-30.2 24.4-11.4 24.2-10.8 10.8-21.2-6.4-5-12.6-11-14-13.2-7.2-12.8 2.8-29.4 17.8-29.4 5.8 0 12.2 4 34.6 21.8 15 11.8 22.2 15.8 43 24 21.6 8.6 51.6 18.2 56.4 18.2 2.6 0 1.8-4.6-2.4-18.4-6.2-20.2-17.2-35.4-35.4-48.8-8.6-6.2-22-16.6-29.8-23-15.8-13.2-26-17.4-44.8-19.2-21-1.8-28-7.2-28-21.4 0-4.6 1.8-9 4.8-12.6 4.8-5.4 5.4-5.6 23.6-5.4 12.8 0.2 22.2 1.4 29.8 4.2l11.4 3.8 1-8c1.4-10.6 8.8-17.2 19.2-17.2 21 0 27.4 27 8.6 36.4l-6.8 3.2 17.8 14.2c9.6 7.8 18.2 14.2 19 14.2s6-6.2 11.6-13.8c15-20.6 35-38.2 53.8-47.4l16-7.8-0.4-18.8-0.4-19-12-4.6c-17.2-6.8-50.6-16-71.8-20-18.2-3.2-66.8-4.6-96.2-2.6-7.6 0.4-23.4-0.2-35-1.4-11.6-1.4-27.2-3-34.6-3.6l-13.8-1.2 1.4 18c1.2 14.8 1 19-1.6 22.8-4.4 6.8-14 10.4-21.8 8.2-11.2-3.2-13.6-9-21-53.2-11.6-66.8-11.4-120.6 0.6-173.2 2.6-11.8 4.8-22 4.8-22.8 0-1-8.8-1.6-19.4-1.6h-19.6l-21.6 84.6-21.6 84.4-2.8 42c-1.6 23.2-3 44.6-3 47.6 0 3.6-2.2 7.8-5.8 11.6-8.2 8.2-20.2 8.2-28.4 0-6.8-6.8-6.8-6-3.2-57.8l2.4-34.4-11-4.2c-32.8-12.2-80.4-22.6-119.4-25.8-67-5.6-128.2 11.2-171.4 46.8l-5.8 4.8 15 23.8c8.4 13 16.2 25.6 17.4 28 8.6 17-8.6 34.4-26.4 26.4-2.6-1.2-15.6-18.4-30.6-40.4-14.2-21-32.2-46.8-40-57.4-18-24-54.4-59.2-78.4-75.6-15.4-10.6-18.6-13.6-20.4-20-4.8-16.8-8-42.6-8.2-62.8v-21.6h-37.8v12.6c0 6.8 1.4 35.6 3 64l2.8 51.6 7.8 9.4c4.4 5.2 9.8 11 12.2 13.2 2.2 2 5 6.8 6.4 10.6 2 6.2 1.4 8.2-5.2 22.2-10.2 21.2-17.6 42-23.2 64.4-4.2 16.8-4.6 23.6-4.6 58 0.2 45.2 1 49 20 82.6 27.6 48.8 55.2 75.6 99.6 96.6 34.8 16.4 67.8 22.8 117.8 22.8 37.6 0 51.8-1.6 85.8-10.2 27-6.6 33-7 38.8-2.2 10.2 8.2 11.4 19.4 3.4 28.4-4.8 5.2-9.4 7-28.8 12-37 9.2-61.2 12-101 11.8-19.8-0.2-38-0.6-40.8-1.2zM213.2 270c2.8-9.4 7.8-22.8 11-29.8s5.8-13.6 5.8-14.6c0-1-9.2-1.4-20.4-1.2l-20.6 0.6-15.6 29.8-15.8 29.8 43.4 43.4 3.4-20.4c2-11.4 5.8-28.2 8.8-37.6zM474 708.6c-21-8.2-15.8-38.4 6.6-38.6 10.4 0 19.4 8.6 19.4 18.8 0 12.4-15.2 24-26 19.8z" />
<glyph unicode="&#xe908;" glyph-name="rabbit" d="M579.085 946.028c36.446-12.215 71.49-51.265 105.133-117.548 21.828-43.054 35.244-79.901 46.859-127.961 2.804-11.414 5.407-21.027 5.607-21.227 0.401-0.2 10.413-2.403 22.629-4.806 63.28-12.616 111.541-38.248 156.397-83.105 34.644-34.844 56.271-68.887 72.291-114.344 4.806-14.218 5.607-18.824 5.407-40.051 0-20.626-0.801-26.233-5.207-39.249-3.004-8.411-8.811-21.027-12.816-28.035-9.812-16.621-34.243-40.852-51.465-50.664-10.213-5.807-13.217-8.611-12.416-11.014 8.811-22.629 16.821-66.284 17.021-90.915 0-33.442-7.81-73.893-19.825-103.33-3.404-8.21-6.208-15.019-6.208-15.419s13.217-0.801 29.437-0.801c33.642 0 43.054-2.003 59.275-12.816 12.416-8.411 19.825-17.422 27.034-32.841s7.409-39.65 0.401-57.472c-6.408-16.421-24.431-34.644-41.052-41.252l-12.015-4.806-316.399-0.601c-223.282-0.401-322.006 0-335.423 1.602-75.695 8.811-140.978 46.659-185.834 107.736l-9.412 12.616-10.013-1.402c-53.467-8.010-99.526 25.232-107.736 77.297-7.009 45.457 24.231 91.115 69.688 102.129l8.010 2.003 3.605 17.422c19.424 94.92 93.117 175.221 185.234 202.055 35.845 10.413 43.855 10.814 178.826 10.814h125.358l-7.209 20.626c-6.809 19.625-7.209 21.627-7.209 47.26v26.634l-9.011 6.208c-48.862 33.442-106.334 92.717-140.177 144.582-13.617 21.027-31.039 56.872-35.244 73.092-5.006 19.024-4.606 40.651 0.801 53.067 5.807 12.616 11.014 18.223 23.43 24.631 8.611 4.606 12.416 5.207 28.035 5.207 14.819 0 21.427-1.202 36.446-6.408 10.213-3.404 23.83-9.011 30.438-12.416 6.608-3.204 12.616-6.008 13.217-6.008s1.001 5.207 1.001 11.615c0.2 33.042 15.419 64.882 36.045 75.495 8.411 4.406 27.435 5.607 37.047 2.403zM558.258 902.774c-6.408-6.408-8.611-17.622-9.612-47.26l-1.001-28.035 14.618-11.615c39.65-31.239 86.109-80.902 111.34-118.55 7.409-11.214 12.416-17.021 15.019-17.021 4.406 0 4.606-1.402-1.402 21.627-15.219 59.675-44.857 124.557-74.694 163.406-17.422 22.629-38.649 40.852-48.061 41.252-1.202 0-4.205-1.802-6.208-3.805zM416.68 838.492c-5.207-2.003-5.407-2.403-4.406-16.621 3.805-53.668 83.105-153.794 167.611-211.667 10.013-6.809 19.625-14.418 21.227-16.821 3.805-5.207 3.805-14.018 0-28.636-6.008-23.43-2.804-40.451 16.22-80.702 10.013-21.427 10.613-23.63 8.611-30.639-1.402-5.207-4.205-8.811-8.411-11.414-6.208-3.805-11.214-4.005-148.587-4.005-116.146 0-145.584-0.601-160.603-3.004-95.12-15.419-168.012-86.709-186.035-182.23-9.412-50.263 5.207-119.751 34.243-163.006 26.834-40.051 67.685-71.49 113.143-87.51 33.242-11.414 32.040-11.414 177.224-12.215l134.169-0.801 8.811 4.606c12.416 6.408 16.821 13.217 17.822 27.034 0.601 9.612 0 12.816-4.005 18.423-10.413 15.419-9.412 15.019-73.292 16.22-60.677 1.001-62.479 1.402-68.687 10.814-1.802 2.804-3.004 15.019-4.005 38.248-1.001 27.835-2.003 36.045-5.407 44.857-11.615 29.637-36.646 54.268-65.883 64.682-8.611 3.004-18.824 4.406-40.651 5.407-19.224 1.001-30.438 2.403-33.442 4.205-11.214 7.209-12.616 23.63-2.804 32.441 6.208 5.607 6.608 5.607 34.043 5.607 21.027 0 31.44-1.001 43.455-4.005 43.655-11.014 80.301-41.052 99.325-81.503 8.611-18.423 12.816-35.845 14.618-61.077l1.402-17.422 92.917-1.202 13.016-6.408c15.82-7.81 28.035-20.426 35.445-36.246 6.809-14.618 8.411-39.45 3.605-53.868-1.802-5.006-3.204-9.612-3.204-10.013 0-1.802 308.189-0.401 314.797 1.402 8.811 2.603 20.626 15.019 22.629 24.030 3.004 14.018-4.005 29.437-16.821 36.045-7.409 3.605-11.615 4.005-55.27 4.005-52.266 0-56.271 0.801-62.279 12.416-4.406 8.411-2.804 14.018 9.011 34.644 20.626 36.045 29.037 68.286 28.836 111.14-0.2 34.443-4.205 55.67-16.621 86.509-4.406 11.014-8.010 22.629-8.010 25.632 0 8.010 8.21 16.821 18.423 19.825 45.257 13.617 77.698 58.273 72.892 100.327-1.602 13.217-14.018 44.857-25.032 63.68-31.239 53.467-82.905 95.52-140.377 114.344-29.637 9.612-49.663 12.816-84.507 13.417-18.423 0.2-35.244 1.001-37.647 1.802-2.203 0.801-11.414 12.416-21.027 26.834-53.668 80.902-142.98 155.997-204.258 171.616-12.816 3.204-15.62 3.204-22.228 0.801zM64.836 199.887c-27.034-17.222-30.639-54.068-7.409-76.697 10.013-9.612 19.424-13.617 32.441-13.617h7.409l-5.807 16.621c-7.009 20.226-14.018 54.268-14.018 68.687 0 6.008-0.801 10.814-1.602 10.814s-5.807-2.603-11.014-5.807zM832.604 534.709c15.82-9.812 15.62-34.043-0.2-43.455-21.027-12.416-46.258 11.214-35.044 32.841 6.809 13.217 23.229 18.223 35.244 10.613zM357.005 399.138c6.608-6.608 7.209-8.010 6.208-15.62-1.802-13.617-7.81-17.822-28.436-19.825-23.83-2.403-39.249-6.608-58.273-16.020-20.025-9.812-40.051-26.233-52.266-42.454-17.422-23.63-30.639-58.874-30.639-82.504 0-18.223-8.411-29.037-22.629-29.037-6.008 0-9.212 1.402-13.817 6.208l-6.208 6.008 1.202 22.428c1.202 22.829 4.806 38.248 14.819 62.479 16.22 39.45 50.864 75.295 91.716 95.12 24.431 12.015 45.858 17.822 71.49 19.424l19.424 1.202 7.409-7.409z" />
<glyph unicode="&#xe909;" glyph-name="sausage" d="M857 836c-10.4-4-16.8-21.8-17-47.2 0-10.4 4.8-34.4 9-45.2 1-2.6-0.8-3.6-10.2-5.6-29.2-6.2-52.2-19-76-42.8-22.4-22.4-31-37.6-43.6-77.2-11.4-35-32.4-78.2-50.2-103-53.2-74.4-131-124.4-223-143.2-20-4.2-28.4-4.8-66-4.8-42 0.2-43.8 0.4-78 7.6-41.8 8.8-64.2 9.8-89.2 3.4-29.4-7.6-57.2-23.8-75.6-44.2l-9.2-10.2-9 9.8c-11.4 13-26.6 23.2-44.8 30.6s-24.4 7.6-32.2 0.4c-5.6-5-7.6-11-24.2-72.4-19-70.8-19.6-75.8-11.2-83.6 10.2-9.6 51.8-12.2 75.4-4.6 7.2 2.2 13.6 4.2 14.2 4.2 0.8 0 2.8-6.6 4.6-14.4 1.8-8 7.4-23.2 12.6-33.6 7.8-16.2 11.8-21.6 28.4-38.2s22-20.6 38.2-28.4c64-31.2 201.6-43 305-26.2 92.6 15 180.2 49.2 260 101.8 67 44 127.8 102.4 174.4 167.8 46.2 64.8 87.8 156.2 101.6 223.2 10.2 49.4-8.2 104.6-46.8 140.6l-10 9.4 8 6.4c15.8 12.6 31.2 37.2 36.4 57.6 3.2 12.6 1.6 20.6-5.4 25-3.8 2.6-121.6 35-136.2 37.6-3.2 0.6-7.8 0.2-10-0.6zM922 781c19.2-5 36.6-9.6 38.4-10.2 4.6-1.4 2.4-6-9.2-18.4-28.6-31.2-66-16.4-70.6 28.2-1.2 11-1 11.8 2.6 10.8 2-0.6 19.6-5.2 38.8-10.4zM902.6 696.6c35-10.2 65.6-40.6 76.4-76 4.4-14.4 5.8-36.2 3.2-51.2-3.2-18.8-19.6-67.8-33-98.4-31-71.6-72.2-131.8-128.2-188-34-34.2-60.8-56.4-97-80.2-146-96-318.4-126.6-487.8-86.6-33.8 8-47.6 15-66.2 33.8-24.6 24.6-35.4 52.8-33.4 86 3.2 49.4 36.4 89.6 84.6 103 16.4 4.6 44.4 3.2 75.8-3.6 32.4-7 53.2-9.4 83-9.4 173 0.2 325.4 112.2 376 276.4 9.6 31 18.2 47.6 33.2 63.4 18.6 19.8 38.4 29.6 70.8 35 8.2 1.4 31.4-0.8 42.6-4.2zM76.8 317.6c8.8-6.2 18.6-17.6 22.2-26.4 8-19.2-1-37.4-23-46.8-10.8-4.8-30-7.6-30-4.4 0 2.6 20 78.4 21.4 80.6 1.2 2.2 2.2 1.8 9.4-3zM924.2 588.8c-8.8-3.8-13.2-13.4-10.4-23 2.8-9.4 8.8-13.8 18.8-13.8 5.8 0 9.2 1.4 13.6 5.8 15.2 15.2-2 39.4-22 31zM907 535c-7.4-3.8-8.8-5.8-18-28.2-4-9.8-13.6-30.2-21.4-45.2-12.2-23.8-14-28.2-12.8-34.4 2.6-14.2 21.2-20.4 32-10.6 11.2 9.8 47.2 87.4 47.2 101.2 0 8-7.2 18.2-12.8 18.2-1.6 0-4 0.4-5.6 1-1.4 0.4-5.4-0.4-8.6-2zM258.8 310c-6-2.4-12.8-11.6-12.8-17.4 0-16.6 19.8-26.6 32.6-16.6 6.2 4.8 9 16.2 5.8 23-4 8.8-17.4 14.4-25.6 11zM432 299.6c-18.2-2.4-69-3-94.4-1l-21.2 1.6-6.6-5.8c-7.6-6.8-8.8-16.4-3-25.2 4.8-7.6 9-8.6 41.6-11.2 29.8-2.4 86-0.2 102 4.2 20 5.2 21.2 33.4 1.6 37.6-3.8 0.8-12.8 0.6-20-0.2z" />
<glyph unicode="&#xe90a;" glyph-name="turkey" d="M797 957.2c-73.4-14.4-106.6-71.4-98.8-169.2 1.2-14.8 7.8-58.8 14.8-98 15.8-88.8 29.8-173.8 28.8-175-0.6-0.4-10.4 0.6-21.8 2.4-26 3.8-92.4 4.2-116 0.8-49.6-7-89.8-18.6-127.8-36.4-11.4-5.4-21-9.6-21.2-9.4-0.4 0.4-5.2 12.8-11.2 27.6-15.2 39-33.2 78-49 106.2-18.4 33-38.2 53.4-62.8 65.6-38.6 18.8-79.2 19-117.2 0-54.2-26.8-83-88.8-68.4-147.4 1.2-4.6 1.6-9 1.2-9.6-0.6-0.4-6.4-2.2-12.8-3.8-45-11.4-83.6-50.4-94.4-95-10.4-43.4 1.8-90.2 32-121.2l8-8.4-6.2-4.6c-14.2-10.4-32.2-39-39-61.8-17.2-57.8 12.2-124.6 66.8-151.6 24-11.6 40-15 66.4-13.8l21.4 1 5.2-7.8c8.2-12.6 26.8-25 47.8-31.6 60.6-19.4 128.6-7.6 180.6 31.6 17.4 13 27.8 23.6 41 41.6l8.8 12 12.8-5.6c31-13.6 78.6-26.8 111.6-31l10.4-1.4v-85l-27.2-0.8-27.2-0.6-5.8-6.6c-7.8-8.8-7.8-18 0-26.8l5.8-6.6 115.2-0.6c127.8-0.6 124.8-0.8 130.2 12.4 4.6 10.8-0.8 23.4-11.4 27-3.4 1.2-16 2.2-27.8 2.2h-21.8v89l21.4 4.8c97.8 21.2 177.4 77 209.8 147.4 14 30.2 15.6 39.6 15.6 97.8 0.2 45.4-0.4 55.4-4.4 79-12.2 70.8-32.4 143.2-61 218.4l-5 13.2 4.8 4.6c8.4 7.8 15.2 24.6 16.2 39.4 1 13.4-2 28.6-11.6 60.2-2 7-3.8 13.2-3.8 13.6 0 2.8 21.4-1.8 33.8-7.2 20.8-9.2 31-8 37.4 4.2 4 7.8 2.8 19.6-6.2 54.8-22 86.2-60.4 139-113.6 157-16.2 5.4-54.2 7-74.4 3zM855.2 915.2c15.2-4 27.2-12 41.2-27.2 18.4-19.6 32.6-47.2 44.2-85.2l5-16.2-16.4 0.2c-11.4 0-19.4-1-26.8-3.8-13.2-4.8-25.6-15.2-27.4-22.6-0.8-3.8 2.2-17.6 9-41.6 5.4-19.6 10-38.8 10-42.4 0-8.8-5.4-17.6-12.2-20.4-7-3-11.6-1.4-18.8 6-5.2 5.4-5.8 7.6-7.2 26.4-0.8 11.4-1.6 30.4-1.6 42.2-0.2 29.4-5 37.8-21.2 37.8-9 0-16.4-5.4-19.2-14-3.2-9.6-0.6-80.8 3.4-94.4 6.4-21.6 27.6-42.4 46.2-45.2 4.8-0.6 10-2.4 11.4-4 3.6-3.6 24.8-63 36-100.8 7.8-26.4 23.2-86.8 23.2-90.8 0-0.8-7.8 5.4-17.4 13.8-31.6 27.6-68.2 48.8-108.6 63.2l-21 7.4-16.2 96.6c-9 53.2-19 111.6-22.4 129.8-22 116.8-7.2 171.2 50.6 185.2 13.6 3.4 43.8 3.4 56.2 0zM296.2 641.2c25.4-7.8 43.2-22.6 58.6-49 17.6-30 46.4-94.2 61.4-136.8l2.6-7.4-17-16c-68.2-63-86.4-144.6-49-218.4l8.8-17.4-20.2-13.8c-42.8-29-109.6-65.8-144.2-79.4-44.2-17.2-92.8-0.8-114 38.8-23.6 44-7.4 98.8 36 120.8 13.4 6.8 19.2 13.4 19.2 22 0 10-3.2 14.8-15.8 22.8-51 32.6-59.6 97.6-18.4 139.2 18.8 18.8 46.2 28.8 70.8 26.2 13.8-1.4 23 3.4 26.6 14 2.4 7.4 2 8.6-5.6 25.2-10.6 23-13.2 37.8-10.2 56.8 7 43.6 43.2 74.8 87.2 75 7.8 0.2 18.2-1 23.2-2.6zM724 475c107.6-17.8 188.2-72.4 213.6-144.6 4.6-13.6 5.4-18.4 5.2-39.4 0-20.8-0.8-26-5.4-39.8-25.2-72.4-104.2-125.8-214.4-144.6-32-5.4-98.4-4.8-132 1.2-127 22.6-214.8 96.6-215.2 181.2 0 26.6 4.6 44.4 17.8 68 19.6 35 53.2 63.8 101.4 87 36.6 17.8 73.6 28 121 34 21.2 2.6 85.4 0.8 108-3zM422 133c7.2-5.4 13.4-10 13.8-10.2 0.4-0.4-2.6-5-6.4-10.2-34-46-93.4-71-149.4-62.8-19.8 3-35.8 8.6-44.2 15.6l-6 5.2 33.6 17.4c36.2 18.8 79.4 44.6 106.6 63.8l17 12 11-10.6c6-5.8 16.8-15 24-20.2zM696 20v-42h-46v81.8l13.6 0.8c7.4 0.4 17.6 0.8 23 1l9.4 0.4v-42zM821.8 852.2c-14.8-14.8-0.2-40.6 19.4-34.2 8.8 3 13.8 10.4 13.6 20.8-0.2 6.2-1.6 9.2-6.6 13.6-8.6 7.8-18.4 7.6-26.4-0.2zM271.8 572.2c-11.4-11.6-6.2-31.6 9.4-35.4 8.2-2.2 19.2 4.4 22 13.2 6.8 20.8-16.4 37.2-31.4 22.2zM144.6 404c-8.2-5-11.6-15.8-7.8-25 8.8-20.8 37.2-15.2 37.2 7.4 0 9.2-3.8 15.6-11.4 19.4-6.2 3.2-10.6 2.8-18-1.8zM128.6 193c-7.8-3.4-11.2-9.4-11.2-19.8s9-19.2 19.8-19.2c16.8 0 25.6 22.6 13.6 34.8-3 2.8-6.4 5.2-8 5.2-1.4 0-3.6 0.4-5.2 1-1.4 0.4-5.4-0.4-9-2zM624 441.8c-69.2-7.8-129.8-35-175.8-78.6-12.4-11.8-35.2-39.8-40-48.6-3.8-7.4-2.6-16 3.4-22.6 5.2-6.2 6.2-6.4 46.4-12 44.6-6.2 77.8-11.8 81.2-13.8 1.6-0.8 0.2-7.6-4.6-22.2-8-24.6-7.8-34.4 0.4-41.4 7.6-6.6 19.2-6.2 26.8 1 4.6 4.2 7.6 10.8 13.2 29 5.2 16.6 8.2 23.4 10.4 23.4 1.6 0 7.8-1.4 13.6-3l10.6-3.2-6.6-19.6c-9.4-27.8-9.8-31-6-38.8 5.2-10.8 17.4-14.4 29-8.4 6 3.2 9.8 11 18 39 2.4 8.2 4.6 15.2 4.8 15.4s14.8-4 32.2-9.6c52-16 63.8-16.4 71.4-1.4 3.4 6.4 3.6 8.6 1.6 14.4-3.2 9.6-7.4 12.6-23 16.2-7.8 1.8-35.2 10-61.4 18-26 8.2-59.8 18-75 21.8-27.4 7-93 19.6-115.2 22.2-6.2 0.8-11.8 2.2-12.4 3-1.2 2 17.8 19.6 33.8 31.4 41 30.2 100.2 48.6 157.4 48.6 22.2 0 56.4-3.8 73.8-8.2 32.4-8.4 62-27.8 74-49 5.2-8.8 6.6-14.2 8-28.2 1.4-16 2-17.8 7.8-23 6.8-6 14.6-7.2 23-3.4 14.6 6.8 15 39.2 0.6 69.8-7.2 15.6-32 41.2-49.8 51.8-17 9.8-46.4 21.4-63.6 25-34.2 7-74.2 8.8-108 5zM796.8 270.2c-11-4.8-15.8-18.8-10-30 9.6-18.4 37.2-10 37.2 11.6 0 12.2-16 23-27.2 18.4z" />
<glyph unicode="&#xe90b;" glyph-name="next" d="M623 784.8c-21.4-11-30.6-35.6-21.2-55.8 2.6-5.4 41-45 118-122 62.8-62.6 114.2-114.6 114.2-115.4 0-1-170.6-1.6-379-1.6-337.6 0-380-0.4-386.6-3-33.8-14.2-33.8-63.8 0-78 6.6-2.6 49-3 386.6-3 208.4 0 379-0.6 379-1.4s-52.6-54.2-116.8-118.6l-116.8-117-2.2-11c-6.6-32 21.8-58.4 53.4-50 8.8 2.4 19.6 12.8 165 157.8 95.4 95 157.4 158.4 159.8 163.2 5.6 10.8 5.6 27.2 0 38-6.2 11.8-309.2 314-318.8 318-9.6 3.8-27 3.8-34.6-0.2z" />
<glyph unicode="&#xe90c;" glyph-name="price-tag" d="M760 957.2c-50.4-10.6-92.6-47-110.6-95.2-2.8-7.2-5.6-16.8-6.4-21.4l-1.4-8.6h-90.4c-98.2 0-103-0.4-124-11.4-7.8-4-58-53.2-210.4-205.4-219.4-219.6-210-209.2-215.2-238.8-3-17.8-0.6-34.4 7.6-51.6 4.8-10.4 22.2-28.6 143.6-150 130-130.2 139-138.8 152.2-145 13.2-6.4 15.2-6.8 36-6.8s22.8 0.4 36 6.6c12.2 5.8 19 11.6 53.6 46l39.4 39.2v-53c0-56.6 1.2-66.4 10.6-81.8 7-11.4 21.4-25.6 32.4-32 21.6-12.4 14.4-12 232.4-12 138.2 0 201.6 0.6 209 2.2 23.8 5 45 19.8 57 40 13.2 22.2 12.6 5.6 12.6 315.8 0 231.6-0.6 282.8-2.8 291.2-5.4 20.2-12.6 29.8-48.6 64.6l-34.4 33.4-0.6 79c-0.8 69.2-1.2 80.2-4.4 89.8-16.4 50.2-53 86.6-102.2 102-18 5.4-52.4 7-71 3.2zM805 916c17-2.4 42-14.2 55.4-25.8 11.6-10.4 23-27.4 29.4-44.2 4.8-12.4 5-15.2 5.8-68l0.8-54.8-42.4 40.8c-69.2 67.2-68 66.4-127.8 67.6l-40.6 0.8 1.2 6.2c2.2 11.6 14.8 34.2 24.6 44.2 17.6 18 38.6 29.2 62.2 33.2 13.2 2.2 15.6 2.2 31.4 0zM640 766.4v-23.6l-7.8-3.6c-11.4-5-26.8-22.4-30.8-35.2-10.4-32 3.8-65.8 33.2-79 15-6.8 26.6-8 41-4.2 21.6 5.4 34.4 16.4 44.2 37.2 13.4 29-0.4 67-29.8 82l-8.2 4.2 1.2 44.8 20.8 0.6c27.2 0.8 40-2.8 51.4-14.4 5.2-5 9.2-11.4 10.6-16.6 1.6-6 2.2-48 1.8-144-0.6-127.4-0.8-136-4.2-142.6-5.4-9.8-392.4-397.2-402.4-402.6-10.2-5.4-28.8-5.6-39-0.6-9.2 4.8-266.8 261.8-273.4 273-6.4 10.6-7.2 27.4-2 38.2 2 4 87.8 91.2 203 206.4 174.6 174.4 200.4 199.4 207.4 201.2 4.8 1.2 44 2 95.6 2.2l87.4 0.2v-23.6zM903.2 657.4c43.2-41.4 71.8-70.4 74-75 3.6-7.2 3.8-18.6 3.8-289.4v-282l-4.6-8.6c-5.8-10.8-17.8-19.6-31-22.4-7.4-1.6-67-2-205.4-1.6l-195 0.6-8 4.4c-10.2 5.4-18 13.6-21.8 23-2.8 6.2-3.2 18.8-3.2 79v71.6l142.8 143c157.4 157.8 151.4 150.6 155.2 180.4 1 8 2 70.8 2 139.6v124.8l10.6-10c5.6-5.6 42-40.4 80.6-77.4zM672 700.6c17.2-10.2 10.8-38.6-8.8-38.6-9.8 0-16.2 3.4-20.2 11-10 18.4 10.8 38.4 29 27.6z" />
<glyph unicode="&#xe942;" glyph-name="phone" d="M704 320c-64-64-64-128-128-128s-128 64-192 128-128 128-128 192 64 64 128 128-128 256-192 256-192-192-192-192c0-128 131.5-387.5 256-512s384-256 512-256c0 0 192 128 192 192s-192 256-256 192z" />
<glyph unicode="&#xe947;" glyph-name="location" d="M512 960c-176.732 0-320-143.268-320-320 0-320 320-704 320-704s320 384 320 704c0 176.732-143.27 320-320 320zM512 448c-106.040 0-192 85.96-192 192s85.96 192 192 192 192-85.96 192-192-85.96-192-192-192z" />
<glyph unicode="&#xe94e;" glyph-name="clock" d="M658.744 210.744l-210.744 210.746v282.51h128v-229.49l173.256-173.254zM512 960c-282.77 0-512-229.23-512-512s229.23-512 512-512 512 229.23 512 512-229.23 512-512 512zM512 64c-212.078 0-384 171.922-384 384s171.922 384 384 384c212.078 0 384-171.922 384-384s-171.922-384-384-384z" />
<glyph unicode="&#xea90;" glyph-name="facebook" d="M608 768h160v192h-160c-123.514 0-224-100.486-224-224v-96h-128v-192h128v-512h192v512h160l32 192h-192v96c0 17.346 14.654 32 32 32z" />
<glyph unicode="&#xea92;" glyph-name="instagram1" d="M512 867.8c136.8 0 153-0.6 206.8-3 50-2.2 77-10.6 95-17.6 23.8-9.2 41-20.4 58.8-38.2 18-18 29-35 38.4-58.8 7-18 15.4-45.2 17.6-95 2.4-54 3-70.2 3-206.8s-0.6-153-3-206.8c-2.2-50-10.6-77-17.6-95-9.2-23.8-20.4-41-38.2-58.8-18-18-35-29-58.8-38.4-18-7-45.2-15.4-95-17.6-54-2.4-70.2-3-206.8-3s-153 0.6-206.8 3c-50 2.2-77 10.6-95 17.6-23.8 9.2-41 20.4-58.8 38.2-18 18-29 35-38.4 58.8-7 18-15.4 45.2-17.6 95-2.4 54-3 70.2-3 206.8s0.6 153 3 206.8c2.2 50 10.6 77 17.6 95 9.2 23.8 20.4 41 38.2 58.8 18 18 35 29 58.8 38.4 18 7 45.2 15.4 95 17.6 53.8 2.4 70 3 206.8 3zM512 960c-139 0-156.4-0.6-211-3-54.4-2.4-91.8-11.2-124.2-23.8-33.8-13.2-62.4-30.6-90.8-59.2-28.6-28.4-46-57-59.2-90.6-12.6-32.6-21.4-69.8-23.8-124.2-2.4-54.8-3-72.2-3-211.2s0.6-156.4 3-211c2.4-54.4 11.2-91.8 23.8-124.2 13.2-33.8 30.6-62.4 59.2-90.8 28.4-28.4 57-46 90.6-59 32.6-12.6 69.8-21.4 124.2-23.8 54.6-2.4 72-3 211-3s156.4 0.6 211 3c54.4 2.4 91.8 11.2 124.2 23.8 33.6 13 62.2 30.6 90.6 59s46 57 59 90.6c12.6 32.6 21.4 69.8 23.8 124.2 2.4 54.6 3 72 3 211s-0.6 156.4-3 211c-2.4 54.4-11.2 91.8-23.8 124.2-12.6 34-30 62.6-58.6 91-28.4 28.4-57 46-90.6 59-32.6 12.6-69.8 21.4-124.2 23.8-54.8 2.6-72.2 3.2-211.2 3.2v0zM512 711c-145.2 0-263-117.8-263-263s117.8-263 263-263 263 117.8 263 263c0 145.2-117.8 263-263 263zM512 277.4c-94.2 0-170.6 76.4-170.6 170.6s76.4 170.6 170.6 170.6c94.2 0 170.6-76.4 170.6-170.6s-76.4-170.6-170.6-170.6zM846.8 721.4c0-33.91-27.49-61.4-61.4-61.4s-61.4 27.49-61.4 61.4c0 33.91 27.49 61.4 61.4 61.4s61.4-27.49 61.4-61.4z" />
<glyph unicode="&#xea93;" glyph-name="whatsapp" d="M873 811.2c-95.8 96-223.2 148.8-359 148.8-279.6 0-507.2-227.6-507.2-507.4 0-89.4 23.4-176.8 67.8-253.6l-72-263 269 70.6c74.2-40.4 157.6-61.8 242.4-61.8h0.2c0 0 0 0 0 0 279.6 0 507.4 227.6 507.4 507.4 0 135.6-52.8 263-148.6 359zM514.2 30.4v0c-75.8 0-150 20.4-214.8 58.8l-15.4 9.2-159.6-41.8 42.6 155.6-10 16c-42.4 67-64.6 144.6-64.6 224.4 0 232.6 189.2 421.8 422 421.8 112.6 0 218.6-44 298.2-123.6 79.6-79.8 123.4-185.6 123.4-298.4-0.2-232.8-189.4-422-421.8-422zM745.4 346.4c-12.6 6.4-75 37-86.6 41.2s-20 6.4-28.6-6.4c-8.4-12.6-32.8-41.2-40.2-49.8-7.4-8.4-14.8-9.6-27.4-3.2s-53.6 19.8-102 63c-37.6 33.6-63.2 75.2-70.6 87.8s-0.8 19.6 5.6 25.8c5.8 5.6 12.6 14.8 19 22.2s8.4 12.6 12.6 21.2c4.2 8.4 2.2 15.8-1 22.2s-28.6 68.8-39 94.2c-10.2 24.8-20.8 21.4-28.6 21.8-7.4 0.4-15.8 0.4-24.2 0.4s-22.2-3.2-33.8-15.8c-11.6-12.6-44.4-43.4-44.4-105.8s45.4-122.6 51.8-131.2c6.4-8.4 89.4-136.6 216.6-191.4 30.2-13 53.8-20.8 72.2-26.8 30.4-9.6 58-8.2 79.8-5 24.4 3.6 75 30.6 85.6 60.2s10.6 55 7.4 60.2c-3 5.6-11.4 8.8-24.2 15.2z" />
<glyph unicode="&#xea95;" glyph-name="telegram" d="M512 960c-282.8 0-512-229.2-512-512s229.2-512 512-512 512 229.2 512 512-229.2 512-512 512zM763.6 609l-84-395.8c-5.8-28.2-22.8-34.8-46.4-21.8l-128 94.6-61.4-59.8c-7.2-7-12.8-12.8-25.6-12.8-16.6 0-13.8 6.2-19.4 22l-43.6 143.2-126.6 39.4c-27.4 8.4-27.6 27.2 6.2 40.6l493.2 190.4c22.4 10.2 44.2-5.4 35.6-40z" />
<glyph unicode="&#xea96;" glyph-name="twitter" d="M1024 733.6c-37.6-16.8-78.2-28-120.6-33 43.4 26 76.6 67.2 92.4 116.2-40.6-24-85.6-41.6-133.4-51-38.4 40.8-93 66.2-153.4 66.2-116 0-210-94-210-210 0-16.4 1.8-32.4 5.4-47.8-174.6 8.8-329.4 92.4-433 219.6-18-31-28.4-67.2-28.4-105.6 0-72.8 37-137.2 93.4-174.8-34.4 1-66.8 10.6-95.2 26.2 0-0.8 0-1.8 0-2.6 0-101.8 72.4-186.8 168.6-206-17.6-4.8-36.2-7.4-55.4-7.4-13.6 0-26.6 1.4-39.6 3.8 26.8-83.4 104.4-144.2 196.2-146-72-56.4-162.4-90-261-90-17 0-33.6 1-50.2 3 93.2-59.8 203.6-94.4 322.2-94.4 386.4 0 597.8 320.2 597.8 597.8 0 9.2-0.2 18.2-0.6 27.2 41 29.4 76.6 66.4 104.8 108.6z" />
</font>
</defs>
</svg>
